<svg xmlns="http://www.w3.org/2000/svg" xmlns:xlink="http://www.w3.org/1999/xlink" width="35" height="35" viewBox="0 0 35 35">
  <defs>
    <clipPath id="clip-path">
      <rect id="Rectangle_16" data-name="Rectangle 16" width="35" height="35" fill="none"/>
    </clipPath>
  </defs>
  <g id="Group_16" data-name="Group 16" transform="translate(2 1)">
    <g id="Group_15" data-name="Group 15" transform="translate(-2 -1)" clip-path="url(#clip-path)">
      <path id="Path_5" data-name="Path 5" d="M17.5,35h0A17.5,17.5,0,0,1,0,17.5H0a17.5,17.5,0,0,1,35,0h0A17.5,17.5,0,0,1,17.5,35" transform="translate(0 0)" fill="#fff"/>
      <path id="Path_6" data-name="Path 6" d="M18.192,10.325c2.561,0,2.864.01,3.877.056a5.3,5.3,0,0,1,1.781.33,3,3,0,0,1,1.1.718,2.957,2.957,0,0,1,.716,1.1A5.287,5.287,0,0,1,26,14.314c.046,1.012.057,1.315.057,3.878s-.011,2.865-.057,3.877a5.287,5.287,0,0,1-.331,1.781,2.949,2.949,0,0,1-.716,1.1,3,3,0,0,1-1.1.718,5.3,5.3,0,0,1-1.781.33c-1.012.046-1.316.056-3.877.056s-2.865-.01-3.878-.056a5.3,5.3,0,0,1-1.781-.33,2.991,2.991,0,0,1-1.1-.718,2.952,2.952,0,0,1-.717-1.1,5.3,5.3,0,0,1-.332-1.781c-.045-1.012-.054-1.315-.054-3.877s.009-2.866.054-3.878a5.3,5.3,0,0,1,.332-1.781,2.959,2.959,0,0,1,.717-1.1,2.991,2.991,0,0,1,1.1-.718,5.3,5.3,0,0,1,1.781-.33c1.012-.046,1.315-.056,3.878-.056m0-1.729c-2.607,0-2.933.011-3.956.058a7.045,7.045,0,0,0-2.329.446A4.9,4.9,0,0,0,9.1,11.906a7.02,7.02,0,0,0-.446,2.328c-.046,1.023-.057,1.351-.057,3.957s.011,2.933.057,3.956A7.031,7.031,0,0,0,9.1,24.477a4.907,4.907,0,0,0,2.807,2.806,7.021,7.021,0,0,0,2.329.446c1.023.047,1.349.058,3.956.058s2.932-.011,3.956-.058a7.02,7.02,0,0,0,2.328-.446,4.907,4.907,0,0,0,2.807-2.806,7.052,7.052,0,0,0,.447-2.329c.045-1.023.057-1.351.057-3.956s-.012-2.933-.057-3.957a7.041,7.041,0,0,0-.447-2.328A4.9,4.9,0,0,0,24.476,9.1a7.043,7.043,0,0,0-2.328-.446C21.123,8.607,20.8,8.6,18.192,8.6" transform="translate(-0.691 -0.691)" fill="#17285a"/>
      <path id="Path_7" data-name="Path 7" d="M18.6,13.673A4.927,4.927,0,1,0,23.527,18.6,4.927,4.927,0,0,0,18.6,13.673m0,8.125a3.2,3.2,0,1,1,3.2-3.2,3.2,3.2,0,0,1-3.2,3.2" transform="translate(-1.1 -1.1)" fill="#17285a"/>
      <path id="Path_8" data-name="Path 8" d="M25.652,13.359A1.151,1.151,0,1,1,24.5,12.208a1.152,1.152,0,0,1,1.151,1.151" transform="translate(-1.878 -0.982)" fill="#fff"/>
    </g>
  </g>
</svg>
