<svg xmlns="http://www.w3.org/2000/svg" xmlns:xlink="http://www.w3.org/1999/xlink" width="35" height="35" viewBox="0 0 35 35">
  <defs>
    <clipPath id="clip-path">
      <rect id="Rectangle_14" data-name="Rectangle 14" width="35" height="35" fill="#fff"/>
    </clipPath>
  </defs>
  <g id="Group_12" data-name="Group 12" transform="translate(36 0)">
    <g id="Group_11" data-name="Group 11" transform="translate(-36 0)" clip-path="url(#clip-path)">
      <path id="Path_1" data-name="Path 1" d="M17.5,35h0A17.5,17.5,0,0,1,0,17.5H0a17.5,17.5,0,0,1,35,0h0A17.5,17.5,0,0,1,17.5,35" transform="translate(0 0)" fill="#fff"/>
      <path id="Path_2" data-name="Path 2" d="M15.937,28.683H20.2V18.015H23.17l.316-3.572H20.2V12.409c0-.842.169-1.175.984-1.175h2.305V7.527h-2.95c-3.17,0-4.6,1.4-4.6,4.068v2.848H13.721V18.06h2.216Z" transform="translate(-1.103 -0.605)" fill="#17285a"/>
    </g>
  </g>
</svg>
